<?xml version="1.0" encoding="UTF-8"?>
<svg id="Layer_2" data-name="Layer 2" xmlns="http://www.w3.org/2000/svg" viewBox="0 0 227.33 198.09">
  <defs>
    <style>
      .cls-1 {
        fill: #fff;
      }
    </style>
  </defs>
  <g id="Layer_1-2" data-name="Layer 1">
    <path class="cls-1" d="m107.29,164.75l-41.12-55.05L0,191.62V12.26C0,5.49,6.06,0,13.55,0s13.55,5.49,13.55,12.26v102.81l39.87-49.41,62.09,83.15h-.01c4.65,5.8,3.72,14.27-2.07,18.93-5.81,4.68-14.31,3.77-18.98-2.03l-.71-.96Z"/>
    <path class="cls-1" d="m120.04,33.34l41.12,55.05L227.33,6.47v179.36c0,6.77-6.06,12.26-13.55,12.26s-13.55-5.49-13.55-12.26v-102.81s-39.87,49.41-39.87,49.41l-62.09-83.15h.01c-4.65-5.8-3.72-14.27,2.07-18.93,5.81-4.68,14.31-3.77,18.98,2.03l.71.96Z"/>
  </g>
</svg>