<?xml version="1.0" encoding="utf-8" ?>
<svg baseProfile="tiny" height="1336" version="1.2" width="1336" xmlns="http://www.w3.org/2000/svg" xmlns:ev="http://www.w3.org/2001/xml-events" xmlns:xlink="http://www.w3.org/1999/xlink"><defs /><polygon fill="white" points="158,0 157,1 149,1 148,2 143,2 142,3 137,3 136,4 133,4 132,5 129,5 128,6 125,6 124,7 121,7 120,8 119,8 118,9 115,9 114,10 113,10 112,11 110,11 109,12 108,12 107,13 105,13 104,14 103,14 102,15 100,15 99,16 98,16 96,18 95,18 94,19 92,19 91,20 90,20 88,22 87,22 86,23 85,23 83,25 82,25 81,26 80,26 78,28 77,28 75,30 74,30 72,32 71,32 68,35 67,35 64,38 63,38 56,45 55,45 44,56 44,57 38,63 38,64 35,67 35,68 32,71 32,72 30,74 30,75 28,77 28,78 26,80 26,81 24,83 24,84 23,85 23,86 22,87 22,88 21,89 21,90 19,92 19,93 18,94 18,95 17,96 17,97 16,98 16,100 15,101 15,102 14,103 14,104 13,105 13,106 12,107 12,109 11,110 11,112 10,113 10,114 9,115 9,117 8,118 8,121 7,122 7,124 6,125 6,128 5,129 5,132 4,133 4,136 3,137 3,141 2,142 2,148 1,149 1,158 0,159 0,1176 1,1177 1,1186 2,1187 2,1192 3,1193 3,1198 4,1199 4,1202 5,1203 5,1206 6,1207 6,1210 7,1211 7,1213 8,1214 8,1216 9,1217 9,1220 10,1221 10,1222 11,1223 11,1225 12,1226 12,1227 13,1228 13,1230 14,1231 14,1232 15,1233 15,1234 16,1235 16,1236 17,1237 17,1238 18,1239 18,1240 19,1241 19,1243 21,1245 21,1246 22,1247 22,1248 23,1249 23,1250 24,1251 24,1252 26,1254 26,1255 28,1257 28,1258 30,1260 30,1261 32,1263 32,1264 35,1267 35,1268 38,1271 38,1272 44,1278 44,1279 45,1279 46,1280 46,1281 55,1290 56,1290 63,1297 64,1297 67,1300 68,1300 71,1303 72,1303 74,1305 75,1305 77,1307 78,1307 80,1309 81,1309 83,1311 84,1311 85,1312 86,1312 87,1313 88,1313 89,1314 90,1314 92,1316 93,1316 94,1317 95,1317 96,1318 97,1318 98,1319 100,1319 101,1320 102,1320 103,1321 104,1321 105,1322 106,1322 107,1323 109,1323 110,1324 112,1324 113,1325 114,1325 115,1326 117,1326 118,1327 121,1327 122,1328 124,1328 125,1329 128,1329 129,1330 132,1330 133,1331 136,1331 137,1332 142,1332 143,1333 148,1333 149,1334 158,1334 159,1335 1177,1335 1178,1334 1186,1334 1187,1333 1192,1333 1193,1332 1198,1332 1199,1331 1202,1331 1203,1330 1206,1330 1207,1329 1210,1329 1211,1328 1214,1328 1215,1327 1216,1327 1217,1326 1220,1326 1221,1325 1222,1325 1223,1324 1225,1324 1226,1323 1227,1323 1228,1322 1230,1322 1231,1321 1232,1321 1233,1320 1234,1320 1235,1319 1237,1319 1239,1317 1241,1317 1242,1316 1243,1316 1245,1314 1246,1314 1247,1313 1248,1313 1249,1312 1250,1312 1252,1310 1253,1310 1254,1309 1255,1309 1257,1307 1258,1307 1260,1305 1261,1305 1263,1303 1264,1303 1267,1300 1268,1300 1271,1297 1272,1297 1278,1291 1279,1291 1279,1290 1280,1289 1281,1289 1290,1280 1290,1279 1297,1272 1297,1271 1300,1268 1300,1267 1303,1264 1303,1263 1305,1261 1305,1260 1307,1258 1307,1257 1309,1255 1309,1254 1311,1252 1311,1251 1312,1250 1312,1249 1313,1248 1313,1247 1314,1246 1314,1245 1316,1243 1316,1242 1317,1241 1317,1240 1318,1239 1318,1238 1319,1237 1319,1235 1320,1234 1320,1233 1321,1232 1321,1231 1322,1230 1322,1229 1323,1228 1323,1226 1324,1225 1324,1223 1325,1222 1325,1221 1326,1220 1326,1218 1327,1217 1327,1214 1328,1213 1328,1211 1329,1210 1329,1207 1330,1206 1330,1203 1331,1202 1331,1199 1332,1198 1332,1194 1333,1193 1333,1187 1334,1186 1334,1177 1335,1176 1335,158 1334,157 1334,149 1333,148 1333,143 1332,142 1332,137 1331,136 1331,133 1330,132 1330,129 1329,128 1329,125 1328,124 1328,122 1327,121 1327,119 1326,118 1326,115 1325,114 1325,113 1324,112 1324,110 1323,109 1323,108 1322,107 1322,105 1321,104 1321,103 1320,102 1320,101 1319,100 1319,99 1318,98 1318,97 1317,96 1317,94 1315,92 1315,91 1314,90 1314,89 1313,88 1313,87 1312,86 1312,85 1311,84 1311,83 1309,81 1309,80 1307,78 1307,77 1305,75 1305,74 1303,72 1303,71 1300,68 1300,67 1297,64 1297,63 1289,55 1289,54 1281,46 1280,46 1279,45 1279,44 1278,44 1272,38 1271,38 1268,35 1267,35 1264,32 1263,32 1261,30 1260,30 1258,28 1257,28 1255,26 1254,26 1252,24 1251,24 1250,23 1249,23 1248,22 1247,22 1246,21 1245,21 1243,19 1242,19 1241,18 1240,18 1239,17 1238,17 1237,16 1235,16 1234,15 1233,15 1232,14 1231,14 1230,13 1229,13 1228,12 1226,12 1225,11 1223,11 1222,10 1221,10 1220,9 1218,9 1217,8 1214,8 1213,7 1211,7 1210,6 1207,6 1206,5 1203,5 1202,4 1199,4 1198,3 1194,3 1193,2 1187,2 1186,1 1177,1 1176,0" /></svg>